<?xml version="1.0" encoding="utf-8"?>
<!-- Generator: Adobe Illustrator 19.0.0, SVG Export Plug-In . SVG Version: 6.00 Build 0)  -->
<!DOCTYPE svg PUBLIC "-//W3C//DTD SVG 1.1//EN" "http://www.w3.org/Graphics/SVG/1.1/DTD/svg11.dtd">
<svg version="1.1" id="Layer_1" xmlns="http://www.w3.org/2000/svg" xmlns:xlink="http://www.w3.org/1999/xlink" x="0px" y="0px"
	 viewBox="0 0 600 84.8" style="enable-background:new 0 0 600 84.8;" xml:space="preserve">
<style type="text/css">
	.st0{fill:#EF4637;}
	.st1{fill:#4286F7;}
	.st2{fill:#31AA52;}
	.st3{fill:#333333;}
</style>
<g>
	<path id="XMLID_32_" class="st0" d="M43.5,0c-7.6,0-13.8,6.2-13.8,13.8v13.8h13.8c7.6,0,13.8-6.2,13.8-13.8S51.1,0,43.5,0z"/>
	<path id="XMLID_31_" class="st1" d="M13.8,0C6.2,0,0,6.2,0,13.8s6.2,13.8,13.8,13.8h13.8V13.8C27.5,6.2,21.4,0,13.8,0z"/>
	<path id="XMLID_30_" class="st2" d="M13.8,29.8C6.2,29.8,0,36,0,43.6s6.2,13.8,13.8,13.8s13.8-6.2,13.8-13.8V29.8H13.8z"/>
	<path class="st3" d="M67.9,84.3L42.8,50.7v33.6h-13V29.8H42l25.1,33.6V29.8h12.9v54.5H67.9z M143.4,56.9c0,15.9-12.6,28-29.5,28
		c-16.8,0-29.4-12-29.4-28c0-15.9,12.6-27.6,29.4-27.6C130.7,29.2,143.4,41.1,143.4,56.9z M98.6,57c0,9.2,7.1,16.3,15.4,16.3
		c8.4,0,15.1-7.1,15.1-16.3c0-9.2-6.7-16.1-15.1-16.1C105.6,40.9,98.6,47.8,98.6,57z M148.4,84.2V29.7h13.9v54.5H148.4z M191.1,29.7
		c17.1,0,29,11.1,29,27.3c0,16.1-12,27.3-29.5,27.3h-22.9V29.7H191.1z M181.5,73.2h9.9c8.5,0,14.6-6.5,14.6-16.1
		c0-9.7-6.4-16.3-15.2-16.3h-9.3V73.2z M398.9,84.3l-0.1-35.4l-13.1,30h-9l-13.1-30v35.4h-12.4V29.7h15.2l14.8,32.5L396,29.7h15.1
		v54.6H398.9z M430.2,40.7v10.8h26v10.9h-26v11H459v10.9h-42.7V29.8H459v10.9H430.2z M487.3,29.8c17.1,0,29,11.1,29,27.3
		c0,16.1-12,27.3-29.5,27.3h-22.9V29.8H487.3z M477.7,73.2h9.9c8.5,0,14.6-6.5,14.6-16.1c0-9.7-6.4-16.3-15.2-16.3h-9.3V73.2z
		 M238.4,40.7v10.8h26v10.9h-26v11h28.8v10.9h-42.7V29.8h42.7v10.9H238.4z M295.5,29.8c17.1,0,29,11.1,29,27.3
		c0,16.1-12,27.3-29.5,27.3H272V29.8H295.5z M285.9,73.2h9.9c8.5,0,14.6-6.5,14.6-16.1c0-9.7-6.4-16.3-15.2-16.3h-9.3V73.2z
		 M521.5,84.3V29.8h13.9v54.5H521.5z M557.5,74.2l-4,10h-14.2l23.5-54.5H577l23,54.5h-14.8l-3.9-10H557.5z M569.5,43.6l-7.9,20.2
		h15.7L569.5,43.6z"/>
</g>
</svg>
