<?xml version="1.0" encoding="utf-8"?>
<!DOCTYPE svg PUBLIC "-//W3C//DTD SVG 1.1//EN" "http://www.w3.org/Graphics/SVG/1.1/DTD/svg11.dtd">
<svg version="1.1" id="Layer_1" xmlns="http://www.w3.org/2000/svg" xmlns:xlink="http://www.w3.org/1999/xlink" x="0px" y="0px"
	 width="1280px" height="454px" viewBox="0 0 1280 454" enable-background="new 0 0 1280 454" xml:space="preserve">
<g>
	<path id="film-reel" d="M404.487,100.033c-53.402-11.376-105.906,22.73-117.277,76.12c-11.375,53.404,22.677,105.924,76.081,117.3
		c53.402,11.373,105.895-22.706,117.274-76.127C491.935,163.948,457.884,111.411,404.487,100.033z M366.938,137.223
		c2.861-13.423,16.062-21.988,29.486-19.13c13.427,2.861,21.991,16.061,19.133,29.49c-2.864,13.419-16.064,21.99-29.489,19.127
		C372.646,163.854,364.08,150.652,366.938,137.223z M308.341,166.67c2.858-13.449,16.073-22.03,29.521-19.162
		c13.442,2.865,22.02,16.079,19.15,29.524c-2.857,13.444-16.072,22.025-29.519,19.157
		C314.052,193.328,305.472,180.112,308.341,166.67z M368.149,241.93c-2.857,13.449-16.075,22.024-29.526,19.16
		c-13.441-2.863-22.016-16.08-19.15-29.521c2.858-13.448,16.073-22.025,29.523-19.157
		C362.442,215.272,371.012,228.488,368.149,241.93z M380.644,211.949c-8.402-1.789-13.749-10.041-11.958-18.439
		c1.786-8.395,10.032-13.755,18.437-11.971c8.397,1.789,13.749,10.049,11.963,18.446
		C397.298,208.379,389.042,213.737,380.644,211.949z M433.1,253.062c-2.862,13.439-16.074,22.008-29.518,19.146
		c-13.438-2.854-22.007-16.072-19.15-29.514c2.868-13.438,16.079-22.021,29.521-19.152
		C427.391,226.402,435.961,239.619,433.1,253.062z M462.917,193.674c-2.858,13.414-16.037,21.963-29.445,19.108
		c-13.414-2.858-21.958-16.046-19.103-29.452c2.853-13.408,16.035-21.97,29.445-19.104
		C457.22,167.08,465.778,180.259,462.917,193.674z"/>
	<polygon points="174.646,286.186 72.271,119.87 71.192,119.87 72.63,286.186 13,286.186 13,31.862 83.047,31.862 185.063,197.82 
		186.142,197.82 184.705,31.862 244.334,31.862 244.334,286.186 174.646,286.186 	"/>
	<path d="M584.502,50.184c0,4.551-0.898,8.799-2.694,12.751c-1.794,3.95-4.19,7.364-7.183,10.237
		c-2.997,2.873-6.59,5.153-10.776,6.825c-4.192,1.678-8.563,2.516-13.109,2.516c-9.582,0-17.604-3.171-24.069-9.52
		c-6.466-6.342-9.699-13.948-9.699-22.809c0-4.312,0.836-8.443,2.515-12.395c1.674-3.95,4.068-7.362,7.185-10.237
		c3.109-2.874,6.702-5.208,10.776-7.004c4.068-1.796,8.498-2.694,13.293-2.694c4.546,0,8.917,0.843,13.109,2.515
		c4.187,1.678,7.779,3.951,10.776,6.826c2.992,2.872,5.389,6.285,7.183,10.237C583.604,41.382,584.502,45.637,584.502,50.184z"/>
	<polygon points="521.281,286.186 521.281,107.297 580.193,107.297 580.193,286.186 521.281,286.186 	"/>
	<path d="M757.641,14.621v111.716h-0.72c-5.026-5.984-12.094-11.495-21.192-16.524c-9.102-5.029-20.237-7.543-33.406-7.543
		c-12.932,0-24.605,2.514-35.023,7.543c-10.416,5.029-19.277,11.852-26.582,20.474c-7.307,8.622-12.93,18.624-16.882,29.995
		c-3.952,11.378-5.928,23.292-5.928,35.742c0,12.455,1.915,24.426,5.747,35.921c3.829,11.496,9.396,21.615,16.705,30.353
		c7.302,8.745,16.221,15.75,26.761,21.015c10.535,5.265,22.507,7.902,35.922,7.902c11.97,0,23.285-2.459,33.946-7.363
		c10.65-4.906,18.857-11.91,24.604-21.014h0.717v23.348h54.242V14.621H757.641z M757.104,213.265
		c-2.039,5.513-4.912,10.418-8.623,14.728c-3.718,4.312-8.205,7.786-13.47,10.417c-5.271,2.639-11.261,3.953-17.963,3.953
		c-6.947,0-13.054-1.314-18.319-3.953c-5.269-2.631-9.698-6.105-13.289-10.417c-3.594-4.31-6.287-9.278-8.083-14.907
		c-1.796-5.625-2.694-11.317-2.694-17.063s0.897-11.371,2.694-16.883c1.796-5.505,4.489-10.356,8.083-14.547
		c3.591-4.188,8.021-7.599,13.289-10.237c5.265-2.634,11.372-3.952,18.319-3.952c6.702,0,12.692,1.318,17.963,3.952
		c5.265,2.638,9.752,6.106,13.47,10.416c3.711,4.31,6.584,9.222,8.623,14.728c2.03,5.511,3.053,11.135,3.053,16.884
		C760.156,202.13,759.134,207.76,757.104,213.265z"/>
	<path d="M1034.052,157.948c-4.436-11.972-10.598-22.147-18.5-30.533c-7.903-8.381-17.367-14.784-28.378-19.218
		c-11.018-4.429-23.114-6.646-36.28-6.646c-13.649,0-26.348,2.278-38.077,6.825c-11.734,4.551-21.911,10.957-30.533,19.217
		c-8.621,8.262-15.446,18.321-20.476,30.175c-5.028,11.855-7.543,25.089-7.543,39.693c0,15.087,2.571,28.5,7.724,40.231
		c5.146,11.738,12.212,21.615,21.192,29.636c8.981,8.024,19.454,14.131,31.432,18.319c11.974,4.187,24.664,6.285,38.079,6.285
		c18.193,0,34.18-3.295,47.954-9.879c13.767-6.582,24.842-15.984,33.228-28.197l-40.952-25.863
		c-4.075,5.51-9.339,10.001-15.805,13.471c-6.466,3.475-14.368,5.209-23.707,5.209c-5.271,0-10.364-0.837-15.268-2.516
		c-4.911-1.674-9.339-4.008-13.291-7.006c-3.951-2.991-7.183-6.521-9.698-10.596c-2.516-4.068-4.014-8.621-4.49-13.65h129.676
		c0.235-2.155,0.359-4.428,0.359-6.826c0-2.39,0-4.787,0-7.183C1040.697,183.574,1038.48,169.925,1034.052,157.948z
		 M910.662,176.267c0.236-4.545,1.437-8.917,3.592-13.112c2.154-4.186,5.029-7.841,8.62-10.957c3.593-3.109,7.78-5.566,12.574-7.362
		c4.786-1.796,10.058-2.694,15.805-2.694c11.73,0,20.531,3.355,26.403,10.056c5.863,6.709,8.799,14.73,8.799,24.069H910.662z"/>
	<path d="M1208.088,14.621v111.716h-0.72c-5.029-5.984-12.095-11.495-21.193-16.524c-9.101-5.029-20.237-7.543-33.405-7.543
		c-12.932,0-24.605,2.514-35.023,7.543c-10.416,5.029-19.28,11.852-26.582,20.474c-7.309,8.622-12.932,18.624-16.882,29.995
		c-3.952,11.378-5.928,23.292-5.928,35.742c0,12.455,1.915,24.426,5.747,35.921c3.827,11.496,9.395,21.615,16.704,30.353
		c7.303,8.745,16.222,15.75,26.762,21.015c10.534,5.265,22.507,7.902,35.922,7.902c11.971,0,23.285-2.459,33.946-7.363
		c10.651-4.906,18.856-11.91,24.604-21.014h0.719v23.348H1267V14.621H1208.088z M1207.55,213.265
		c-2.038,5.513-4.912,10.418-8.621,14.728c-3.717,4.312-8.206,7.786-13.471,10.417c-5.27,2.639-11.259,3.953-17.96,3.953
		c-6.948,0-13.055-1.314-18.32-3.953c-5.271-2.631-9.698-6.105-13.291-10.417c-3.593-4.31-6.285-9.278-8.082-14.907
		c-1.796-5.625-2.693-11.317-2.693-17.063s0.897-11.371,2.693-16.883c1.797-5.505,4.489-10.356,8.082-14.547
		c3.593-4.188,8.021-7.599,13.291-10.237c5.265-2.634,11.372-3.952,18.32-3.952c6.701,0,12.69,1.318,17.96,3.952
		c5.264,2.638,9.754,6.106,13.471,10.416c3.709,4.31,6.583,9.222,8.621,14.728c2.033,5.511,3.054,11.135,3.054,16.884
		C1210.604,202.13,1209.582,207.76,1207.55,213.265z"/>
</g>
<g>
	<path d="M493.714,443.38l0.574-71.854h-0.429l-26.391,71.854h-17.21l-25.672-71.854h-0.43l0.573,71.854H401.64V341.838h34.895
		l23.12,65.114h0.572l22.115-65.114h35.469V443.38H493.714z"/>
	<path d="M538.604,443.38V341.838h68.269v20.654h-44.604v19.218h42.165v19.647h-42.165v21.083h47.186v20.938L538.604,443.38
		L538.604,443.38z"/>
	<path d="M720.458,392.322c0,8.892-1.65,16.562-4.948,23.018c-3.299,6.454-7.649,11.76-13.051,15.92
		c-5.404,4.16-11.498,7.223-18.286,9.181c-6.789,1.961-13.675,2.939-20.653,2.939h-37.86V341.838h36.714
		c7.171,0,14.246,0.838,21.227,2.51c6.98,1.674,13.194,4.447,18.646,8.319c5.45,3.872,9.847,9.06,13.193,15.562
		C718.785,374.729,720.458,382.764,720.458,392.322z M694.93,392.322c0-5.738-0.933-10.491-2.797-14.271
		c-1.863-3.776-4.352-6.788-7.459-9.036c-3.106-2.244-6.645-3.848-10.611-4.805c-3.971-0.954-8.057-1.436-12.264-1.436H649.61
		v59.377h11.616c4.396,0,8.627-0.503,12.692-1.507c4.062-1.005,7.647-2.651,10.755-4.947c3.107-2.293,5.596-5.354,7.459-9.179
		C693.997,402.697,694.93,397.964,694.93,392.322z"/>
	<path d="M736.662,443.38V341.838h24.669V443.38H736.662z"/>
	<path d="M851.11,443.38l-7.888-19.935h-39.297l-7.459,19.935H769.79l42.597-101.542h23.807L878.36,443.38H851.11z M823.86,368.943
		l-12.907,34.852h25.529L823.86,368.943z"/>
</g>
</svg>
