<?xml version="1.0" encoding="utf-8"?>
<!-- Generator: Adobe Illustrator 16.0.0, SVG Export Plug-In . SVG Version: 6.00 Build 0)  -->
<!DOCTYPE svg PUBLIC "-//W3C//DTD SVG 1.1//EN" "http://www.w3.org/Graphics/SVG/1.1/DTD/svg11.dtd">
<svg version="1.1" id="Layer_1" xmlns="http://www.w3.org/2000/svg" xmlns:xlink="http://www.w3.org/1999/xlink" x="0px" y="0px"
	 width="250px" height="250px" viewBox="249.104 64.092 250 250" enable-background="new 249.104 64.092 250 250"
	 xml:space="preserve">
<path id="film-reel" d="M394.704,92.382c-53.402-11.376-105.906,22.73-117.277,76.12c-11.375,53.404,22.677,105.924,76.081,117.3
	c53.402,11.373,105.895-22.706,117.274-76.127C482.151,156.297,448.101,103.76,394.704,92.382z M357.154,129.572
	c2.861-13.423,16.062-21.988,29.486-19.13c13.427,2.861,21.991,16.061,19.133,29.49c-2.863,13.419-16.063,21.99-29.488,19.127
	C362.863,156.203,354.297,143,357.154,129.572z M298.558,159.019c2.858-13.449,16.073-22.03,29.521-19.162
	c13.441,2.865,22.02,16.079,19.149,29.524c-2.856,13.444-16.071,22.025-29.519,19.157
	C304.269,185.677,295.689,172.46,298.558,159.019z M358.366,234.278c-2.857,13.449-16.075,22.024-29.526,19.16
	c-13.441-2.863-22.016-16.08-19.15-29.521c2.858-13.447,16.073-22.024,29.523-19.156
	C352.659,207.621,361.229,220.837,358.366,234.278z M370.86,204.298c-8.401-1.789-13.749-10.041-11.958-18.439
	c1.786-8.395,10.032-13.755,18.438-11.971c8.396,1.789,13.749,10.049,11.963,18.446C387.515,200.728,379.259,206.085,370.86,204.298
	z M423.316,245.411c-2.861,13.438-16.073,22.008-29.518,19.146c-13.438-2.854-22.007-16.071-19.15-29.515
	c2.868-13.438,16.079-22.021,29.521-19.151C417.607,218.75,426.178,231.968,423.316,245.411z M453.134,186.022
	c-2.858,13.414-16.037,21.963-29.445,19.108c-13.414-2.858-21.958-16.046-19.103-29.452c2.853-13.408,16.035-21.97,29.445-19.104
	C447.437,159.429,455.995,172.607,453.134,186.022z">
	<animateTransform attributeType="xml"
	                  attributeName="transform"
	                  type="rotate"
	                  from="0"
	                  to="360"
	                  dur="4s"
	                  repeatCount="indefinite"/>
</path>
</svg>
